<svg width="343" height="342" viewBox="0 0 343 342" fill="none" xmlns="http://www.w3.org/2000/svg">
<path d="M76.7185 38.08L100.238 14.56C102.477 12.3217 103.598 8.3998 101.918 5.5991C100.797 2.2397 97.4377 0.559998 94.0784 0.559998H8.39839C3.91789 0.559998 0 4.4819 0 8.9584V95.1964C0 98.5558 2.23829 101.915 5.03909 103.036C6.16019 103.595 7.2774 103.595 8.3985 103.595C10.6368 103.595 12.879 102.474 14.5587 101.356L38.0787 77.8365L97.9967 137.195C99.6764 138.875 101.919 139.434 104.157 139.434C106.395 139.434 108.637 138.875 110.317 137.195L137.196 110.316C140.556 106.957 140.556 101.918 137.196 98.5545L76.7185 38.08Z" fill="black"/>
<path d="M336.558 239.12C333.199 237.999 329.84 238.561 327.598 240.8L304.078 264.32L243.598 204.402C240.238 201.042 235.199 201.042 231.836 204.402L204.398 231.281C201.038 234.64 201.038 239.679 204.398 243.043L264.878 303.523L241.358 327.043C239.119 329.281 237.998 333.203 239.678 336.004C241.358 338.804 244.158 341.043 247.518 341.043L333.194 341.039C337.674 341.039 341.592 337.117 341.592 332.64L341.596 246.96C341.596 243.601 339.354 240.8 336.557 239.121L336.558 239.12Z" fill="black"/>
<path d="M110.318 204.4C106.959 201.041 101.92 201.041 98.5565 204.4L38.0795 264.877L14.5595 241.357C12.3212 239.119 8.39929 237.998 5.59859 239.677C2.23919 240.798 0.559494 244.158 0.559494 247.517V333.197C0.559494 337.678 4.48139 341.595 8.95789 341.595H95.1959C98.5553 341.595 101.915 339.357 103.036 336.556C104.157 333.197 103.594 329.838 101.356 327.595L77.836 304.075L137.195 243.598C140.554 240.239 140.554 235.2 137.195 231.836L110.318 204.4Z" fill="black"/>
<path d="M333.199 0H246.96C243.601 0 240.242 2.2383 239.121 5.0391C238 7.8399 238.562 11.7579 240.8 14L264.32 37.52L204.402 98C201.043 101.359 201.043 106.398 204.402 109.762L231.281 136.641C232.961 138.321 235.203 138.879 237.442 138.879C239.68 138.879 241.922 138.321 243.602 136.641L304.082 76.161L327.602 99.681C329.281 101.361 331.524 101.919 333.762 101.919C334.883 101.919 336 101.919 337.121 101.361C340.481 100.24 342.16 96.8802 342.16 93.5209V8.40392C341.602 3.92342 337.68 0.0016098 333.2 0.0016098L333.199 0Z" fill="black"/>
</svg>
