<svg width="377" height="377" viewBox="0 0 377 377" fill="none" xmlns="http://www.w3.org/2000/svg">
<path d="M134.68 37.2386C131.32 36.1175 127.961 36.68 125.719 38.9183L102.199 62.4382L41.7188 2.52025C38.3594 -0.839148 33.3204 -0.839148 29.9568 2.52025L3.07778 29.3993C-0.281622 32.7587 -0.281622 37.7977 3.07778 41.1613L63.5578 101.641L40.0378 125.161C37.7995 127.4 36.6784 131.321 38.3581 134.122C40.0378 136.923 42.8386 139.161 46.1979 139.161H132.436C136.916 139.161 140.834 135.239 140.834 130.763L140.838 45.0789C139.717 41.7195 137.479 38.9187 134.678 37.2391L134.68 37.2386Z" fill="black"/>
<path d="M312.76 274.118L336.28 250.599C338.518 248.36 339.639 244.438 337.959 241.638C336.28 238.837 333.479 236.599 330.12 236.599H244.44C239.959 236.599 236.041 240.52 236.041 244.997V331.235C236.041 334.594 238.279 337.954 241.08 339.075C242.201 339.633 243.319 339.633 244.44 339.633C246.678 339.633 248.92 338.512 250.6 337.395L274.12 313.875L334.6 374.355C336.28 376.035 338.522 376.593 340.76 376.593C342.998 376.593 345.241 376.035 346.92 374.355L373.799 347.476C377.159 344.117 377.159 339.078 373.799 335.714L312.76 274.118Z" fill="black"/>
<path d="M131.32 236.039H45.0777C41.7183 236.039 38.3589 238.277 37.2379 241.078C36.1169 243.878 36.6793 247.796 38.9176 250.039L62.4376 273.559L2.51955 334.039C-0.83985 337.398 -0.83985 342.437 2.51955 345.801L29.3986 372.68C31.0783 374.359 33.3205 374.918 35.5588 374.918C37.7971 374.918 40.0393 374.359 41.719 372.68L102.199 312.2L125.719 335.72C127.399 337.399 129.641 337.958 131.879 337.958C133 337.958 134.117 337.958 135.239 337.399C138.598 336.278 140.278 332.919 140.278 329.559V244.438C139.719 239.958 135.801 236.04 131.321 236.04L131.32 236.039Z" fill="black"/>
<path d="M345.8 2.51955C342.44 -0.83985 337.401 -0.83985 334.038 2.51955L274.116 62.9996L250.596 39.4795C248.357 37.2412 244.435 36.1201 241.635 37.7998C238.834 39.4795 236.596 42.2803 236.596 45.6396V131.878C236.596 136.358 240.518 140.276 244.994 140.276H331.232C334.591 140.276 337.951 138.038 339.072 135.237C340.193 132.436 339.63 128.518 337.392 126.276L313.872 102.756L374.352 42.2761C377.712 38.9167 377.712 33.8776 374.352 30.514L345.8 2.51955Z" fill="black"/>
</svg>
